<?xml version="1.0" encoding="UTF-8" standalone="no"?>
<!-- Created with Inkscape (http://www.inkscape.org/) -->
<svg
   xmlns:i="http://ns.adobe.com/AdobeIllustrator/10.0/"
   xmlns:dc="http://purl.org/dc/elements/1.1/"
   xmlns:cc="http://web.resource.org/cc/"
   xmlns:rdf="http://www.w3.org/1999/02/22-rdf-syntax-ns#"
   xmlns:svg="http://www.w3.org/2000/svg"
   xmlns="http://www.w3.org/2000/svg"
   xmlns:xlink="http://www.w3.org/1999/xlink"
   xmlns:sodipodi="http://sodipodi.sourceforge.net/DTD/sodipodi-0.dtd"
   xmlns:inkscape="http://www.inkscape.org/namespaces/inkscape"
   width="210mm"
   height="297mm"
   id="svg2104"
   sodipodi:version="0.32"
   inkscape:version="0.44.1"
   sodipodi:docbase="C:\Documents and Settings\Moi\Bureau\PROVISOIRE\HERALDIQUE\faits"
   sodipodi:docname="Meuble_héraldique_Dragon_(wyvern).svg">
  <defs
     id="defs2106">
    <linearGradient
       id="linearGradient4050">
      <stop
         style="stop-color:#e80000;stop-opacity:0.27551019;"
         offset="0"
         id="stop4052" />
      <stop
         style="stop-color:red;stop-opacity:0;"
         offset="1"
         id="stop4054" />
    </linearGradient>
    <radialGradient
       inkscape:collect="always"
       xlink:href="#linearGradient4050"
       id="radialGradient6411"
       gradientUnits="userSpaceOnUse"
       gradientTransform="matrix(1,0,0,1.453973,0,-196.989)"
       cx="165.66602"
       cy="433.92188"
       fx="165.66602"
       fy="433.92188"
       r="86.884758" />
  </defs>
  <sodipodi:namedview
     id="base"
     pagecolor="#ffffff"
     bordercolor="#666666"
     borderopacity="1.0"
     inkscape:pageopacity="0.0"
     inkscape:pageshadow="2"
     inkscape:zoom="0.25600282"
     inkscape:cx="244.11032"
     inkscape:cy="526.18109"
     inkscape:document-units="px"
     inkscape:current-layer="layer1"
     inkscape:window-width="640"
     inkscape:window-height="461"
     inkscape:window-x="-4"
     inkscape:window-y="-4" />
  <metadata
     id="metadata2109">
    <rdf:RDF>
      <cc:Work
         rdf:about="">
        <dc:format>image/svg+xml</dc:format>
        <dc:type
           rdf:resource="http://purl.org/dc/dcmitype/StillImage" />
        <dc:creator>
          <cc:Agent>
            <dc:title>Orror (http://fr.wikipedia.org/wiki/Utilisateur:Orror)</dc:title>
          </cc:Agent>
        </dc:creator>
        <dc:title>Meuble héraldique Dragon (wyvern)</dc:title>
        <dc:description>Heraldic figure: wyvern</dc:description>
        <dc:date>14 nov 2006</dc:date>
        <dc:source>http://commons.wikimedia.org/wiki/Image:Ennetmoos-coat_of_arms.svg</dc:source>
        <dc:language>fr</dc:language>
        <cc:license
           rdf:resource="http://creativecommons.org/licenses/by-sa/2.5/" />
      </cc:Work>
      <cc:License
         rdf:about="http://creativecommons.org/licenses/by-sa/2.5/">
        <cc:permits
           rdf:resource="http://web.resource.org/cc/Reproduction" />
        <cc:permits
           rdf:resource="http://web.resource.org/cc/Distribution" />
        <cc:requires
           rdf:resource="http://web.resource.org/cc/Notice" />
        <cc:requires
           rdf:resource="http://web.resource.org/cc/Attribution" />
        <cc:permits
           rdf:resource="http://web.resource.org/cc/DerivativeWorks" />
        <cc:requires
           rdf:resource="http://web.resource.org/cc/ShareAlike" />
      </cc:License>
    </rdf:RDF>
  </metadata>
  <g
     inkscape:label="Calque 1"
     inkscape:groupmode="layer"
     id="layer1">
    <g
       style="display:inline"
       id="g7239"
       transform="matrix(0.645198,0,0,0.645198,720.3775,431.9182)">
      <path
         id="path7241"
         d="M -386.86187,808.56708 L -400.89132,827.43575 C -400.89132,827.43575 -413.3692,829.37854 -410.71846,851.82748 C -410.71846,851.82748 -431.92434,847.99307 -431.92434,821.16054 C -431.92434,806.37425 -419.72421,802.61569 -419.72421,802.61569 L -402.23651,798.16033 L -386.86187,808.56708 z "
         i:knockout="Off"
         style="fill:#217844;stroke:black;stroke-width:2.65210533;stroke-linecap:round;stroke-linejoin:round;stroke-miterlimit:4;stroke-dasharray:none" />
      <path
         id="path7243"
         d="M -199.25678,812.46029 L -190.461,820.05186 C -190.461,820.05186 -169.58704,820.34337 -161.51716,845.13762 C -161.51716,845.13762 -154.92955,828.42275 -157.71337,816.93345 C -159.53,809.43107 -166.84942,803.01644 -166.84942,803.01644 L -183.81574,799.98581 L -194.96058,803.60956 L -199.25678,812.46029 z "
         i:knockout="Off"
         style="fill:#217844;stroke:black;stroke-width:2.65210629;stroke-linecap:round;stroke-linejoin:round;stroke-miterlimit:4;stroke-dasharray:none" />
      <path
         id="path7245"
         d="M -211.44327,709.42851 L -200.62587,707.41122 C -200.62587,707.41122 -173.27758,704.26586 -157.9955,728.49156 C -157.9955,728.49156 -188.18679,725.24781 -199.3192,734.42585 C -210.4498,743.60295 -214.3175,735.76328 -214.3175,735.76328 L -216.01476,718.13643 L -211.44327,709.42851 z "
         i:knockout="Off"
         style="fill:#217844;stroke:black;stroke-width:2.65210414;stroke-linecap:round;stroke-linejoin:round;stroke-miterlimit:4;stroke-dasharray:none" />
      <path
         id="path7247"
         d="M -142.35338,796.85365 C -142.35338,796.85365 -145.45006,774.66251 -159.23717,764.97463 C -170.64235,756.96022 -185.46748,757.66741 -185.46748,757.66741 L -196.81613,767.87787 L -193.18015,780.74441 L -189.13971,786.13698 L -183.09715,784.46948 C -183.09569,784.46948 -168.40103,776.93299 -142.35338,796.85365 z "
         i:knockout="Off"
         style="fill:#217844;stroke:black;stroke-width:2.65210533;stroke-linecap:round;stroke-linejoin:round;stroke-miterlimit:4;stroke-dasharray:none" />
      <path
         id="path7249"
         d="M -253.52739,-237.86796 C -253.52739,-237.86796 -310.62334,-243.14308 -340.79727,-250.81391 C -370.96922,-258.48475 -389.53824,-271.91024 -390.46679,-284.37662 C -391.39534,-296.84301 -405.31964,-289.17217 -405.31964,-289.17217 L -415.06942,-275.26711 L -399.28605,-238.82709 L -332.90458,-219.16942 L -275.34437,-214.37387 L -254.45395,-226.84026 L -253.52739,-237.86796 z "
         i:knockout="Off"
         style="fill:#217844;stroke:black;stroke-width:2.65210533;stroke-linecap:round;stroke-linejoin:round;stroke-miterlimit:4;stroke-dasharray:none" />
      <path
         id="path7251"
         d="M -254.28333,-235.20992 C -254.28333,-235.20992 -256.52336,-256.91491 -269.69371,-260.96654 C -269.69371,-260.96654 -263.24941,-239.83948 -266.33068,-228.26253 C -269.18975,-217.52582 -263.80891,-226.23569 -263.80891,-226.23569 L -254.28333,-235.20992 z "
         i:knockout="Off"
         style="fill:#217844;stroke:black;stroke-width:2.65210533;stroke-linecap:round;stroke-linejoin:round;stroke-miterlimit:4;stroke-dasharray:none" />
      <path
         id="path7253"
         d="M -269.97346,-327.82144 C -269.97346,-327.82144 -257.64636,-309.87911 -258.48561,-283.54252 C -258.48561,-283.54252 -268.5727,-309.30118 -280.06251,-314.2197 L -269.97346,-327.82144 z "
         i:knockout="Off"
         style="fill:#217844;stroke:black;stroke-width:2.65210533;stroke-linecap:round;stroke-linejoin:round;stroke-miterlimit:4;stroke-dasharray:none" />
      <path
         id="path7255"
         d="M -376.48895,-244.38911 C -357.76713,-276.61561 -339.0493,-250.8344 -320.3275,-237.9438 C -301.60767,-225.05319 -283.92751,-245.99992 -276.12609,-254.59503 C -268.32468,-263.19011 -242.32725,-256.74276 -218.40715,-237.9438 C -194.48705,-219.14483 -179.92585,-221.29258 -168.48565,-225.05319 C -150.06939,-231.10502 -133.64515,-221.29463 -133.64515,-221.29463 C -133.64515,-221.29463 -131.56584,-234.18524 -141.44458,-239.01972 C -162.31912,-249.23179 -174.72558,-235.26115 -192.40773,-247.07583 C -210.08788,-258.89256 -245.96803,-270.71135 -245.96803,-270.71135 C -222.56778,-263.7291 -193.44738,-263.7291 -180.96752,-275.54378 C -156.00775,-299.17519 -135.72645,-288.4344 -117.00862,-289.50622 C -86.854527,-291.2359 -82.168127,-326.03233 -82.168127,-326.03233 C -82.168127,-326.03233 -105.04856,-299.17519 -132.08963,-307.7703 C -159.1287,-316.36336 -188.44948,-301.8189 -201.76863,-291.11908 C -206.36775,-287.42609 -214.00051,-286.54896 -222.79793,-286.85431 C -202.82217,-299.62812 -189.03083,-327.38902 -179.92983,-340.53376 C -165.82896,-360.9005 -119.08794,-371.1515 -123.76641,-391.02434 C -123.76641,-391.02434 -134.6868,-383.50517 -166.92615,-374.37313 C -179.97347,-370.67809 -197.18342,-362.39244 -205.67529,-346.54049 C -214.9727,-329.19453 -232.24215,-301.55043 -251.58299,-289.7583 C -261.04508,-290.78913 -269.72149,-291.29329 -275.60626,-289.50622 C -293.28642,-284.1348 -296.92722,-260.50339 -309.40709,-257.81869 C -321.88699,-255.134 -340.6068,-280.37624 -362.96742,-280.37624 C -385.32802,-280.37624 -401.44868,-257.27971 -401.44868,-257.27971 L -394.1314,-245.86465 L -379.15753,-241.19413 L -376.48895,-244.38911 z "
         i:knockout="Off"
         style="fill:#e20909;stroke:black;stroke-width:2.65210533;stroke-linecap:round;stroke-linejoin:round;stroke-miterlimit:4;stroke-dasharray:none" />
      <path
         id="path7257"
         d="M -277.259,-224.50192 C -277.259,-224.50192 -278.66175,-251.41848 -290.42935,-256.337 C -290.42935,-256.337 -286.22706,-234.92097 -290.42935,-224.50192 L -280.06251,-222.47508 L -277.259,-224.50192 z "
         i:knockout="Off"
         style="fill:#217844;stroke:black;stroke-width:2.65210533;stroke-linecap:round;stroke-linejoin:round;stroke-miterlimit:4;stroke-dasharray:none" />
      <path
         id="path7259"
         d="M -316.20654,-226.23773 C -316.20654,-226.23773 -332.17644,-239.84153 -330.49592,-251.41848 C -330.49592,-251.41848 -335.53946,-251.41848 -337.77949,-245.05311 C -341.08694,-235.65874 -352.07083,-235.21197 -352.07083,-235.21197 L -346.18801,-227.39768 L -316.20654,-226.23773 z "
         i:knockout="Off"
         style="fill:#217844;stroke:black;stroke-width:2.65210533;stroke-linecap:round;stroke-linejoin:round;stroke-miterlimit:4;stroke-dasharray:none" />
      <path
         id="path7261"
         d="M -287.34608,-308.43225 C -287.34608,-308.43225 -277.259,-299.46006 -279.21928,-276.88408 C -279.21928,-276.88408 -290.7091,-298.30216 -302.47472,-303.22271 L -296.31215,-307.85227 L -287.34608,-308.43225 z "
         i:knockout="Off"
         style="fill:#217844;stroke:black;stroke-width:2.65210533;stroke-linecap:round;stroke-linejoin:round;stroke-miterlimit:4;stroke-dasharray:none" />
      <path
         id="path7263"
         d="M -316.12021,-297.9092 C -316.12021,-297.9092 -323.76237,-286.03633 -323.12263,-275.12341 C -323.12263,-275.12341 -328.10946,-291.15538 -335.52491,-292.78227 C -343.58741,-294.55269 -345.00316,-307.98023 -345.00316,-307.98023 L -321.30429,-306.6305 L -316.12021,-297.9092 z "
         i:knockout="Off"
         style="fill:#217844;stroke:black;stroke-width:2.65210533;stroke-linecap:round;stroke-linejoin:round;stroke-miterlimit:4;stroke-dasharray:none" />
      <path
         sodipodi:nodetypes="cccccccccccccccsccscccscssccsscssccscscsccccscscsccccccccsccsccccccccccsccscccssccccccccccccsccccccccscsscsssccccsscccscc"
         id="path7265"
         d="M -1046.3584,-540.85517 C -852.42247,-359.03496 -651.98608,-234.97365 -626.25843,-195.68906 C -600.52893,-156.40447 -628.33219,-119.70532 -650.80197,-120.57425 C -673.05941,-121.43294 -703.21595,-130.66535 -710.49567,-116.70086 C -718.92405,-100.5292 -703.43315,-90.569664 -678.82069,-50.129237 C -654.21205,-9.6908372 -660.61208,72.045447 -660.6122,72.045447 C -660.6122,72.045447 -608.57029,41.840766 -549.91288,47.972509 C -524.81413,50.593683 -498.17676,60.842462 -481.1692,70.163051 C -468.83215,70.880319 -450.07581,70.90563 -437.54832,65.927662 C -435.18724,-7.4483659 -526.56389,-13.205333 -526.56389,-13.205333 C -523.90131,-79.232294 -589.33452,-95.34292 -589.33452,-95.34292 C -554.71027,-173.75016 -593.53371,-205.57163 -593.53371,-205.57163 C -552.25088,-233.08253 -554.94461,-290.38801 -554.94461,-290.38801 C -578.12263,-294.50931 -588.81661,-304.64676 -600.7013,-316.92255 C -629.36734,-346.53406 -632.84681,-399.63933 -632.84681,-399.63933 C -598.53787,-387.08881 -576.61185,-372.53693 -555.01701,-365.79242 C -533.42229,-359.04792 -509.15173,-352.25365 -509.15173,-352.25365 C -505.4395,-361.52915 -509.27998,-354.39054 -504.37334,-360.36243 C -509.70059,-368.61529 -527.08934,-371.41772 -543.07104,-375.81979 C -585.39157,-387.47668 -588.93638,-443.47742 -588.93638,-443.47742 C -568.6927,-429.17274 -535.11981,-428.16891 -511.10653,-414.33649 C -485.00394,-410.93858 -471.10563,-390.29976 -471.10563,-390.29976 C -464.00064,-392.24665 -457.30894,-392.44116 -451.95588,-391.60295 C -436.85304,-389.24003 -419.81036,-392.10975 -419.81036,-392.10975 C -413.33182,-399.40816 -406.59388,-403.71595 -400.22076,-405.87322 C -385.51643,-410.85058 -372.75423,-404.37991 -369.60109,-396.77954 C -365.08136,-385.88502 -343.46476,-370.82421 -343.46476,-370.82421 C -343.46476,-370.82421 -335.82001,-381.24769 -328.84,-385.77477 C -315.86215,-394.18953 -288.73694,-389.14156 -283.15572,-392.14595 C -272.72538,-397.76123 -255.6953,-393.52381 -255.93339,-383.71137 C -256.29055,-368.93534 -268.09656,-360.50723 -268.09656,-360.50723 C -255.03733,-312.7792 -294.12788,-295.2887 -312.40524,-299.29319 C -331.76792,-303.53541 -358.51652,-311.18196 -369.63729,-305.84537 C -385.06751,-298.44095 -404.896,-280.97604 -404.896,-280.97604 C -404.89599,-280.97604 -407.90268,-271.94705 -400.08141,-260.37829 C -385.0361,-238.11997 -320.90997,-226.24178 -280.73032,-226.24178 C -256.61579,-226.24178 -256.32815,-244.61973 -250.612,-236.08816 C -241.57054,-222.59913 -250.99669,-194.82026 -277.61713,-194.82026 C -281.63494,-194.82026 -280.15113,-179.7611 -280.15113,-179.7611 C -286.1788,-179.7611 -292.19688,-195.32706 -299.22848,-195.32706 C -306.26005,-195.32706 -307.26486,-183.92409 -307.26486,-183.92409 C -313.29249,-186.00011 -314.2933,-198.97157 -322.83082,-199.49005 C -331.36835,-200.0106 -328.3694,-185.98749 -328.3694,-185.98749 C -334.39503,-191.17652 -333.38512,-197.42832 -343.42856,-208.32283 C -353.47398,-219.21529 -382.62509,-221.46339 -397.69222,-221.46339 C -410.04114,-221.46339 -420.01366,-234.92749 -425.63855,-240.54074 C -431.95584,-226.26885 -447.51095,-225.96606 -459.73886,-241.59054 C -463.97884,-247.00912 -470.84763,-253.93874 -477.00622,-258.5683 C -492.55943,-182.06081 -452.55259,-141.04869 -394.03603,-143.344 C -335.51946,-145.63931 -323.65684,-102.77299 -311.06585,-84.410548 C -297.69119,-64.906583 -245.14695,-67.57648 -225.88747,-27.793895 C -209.80447,5.4285952 -238.48503,53.293895 -238.48503,53.293895 C -238.485,53.293895 -196.29191,63.310739 -194.06775,116.10073 C -190.92784,144.14364 -209.67963,178.60349 -227.40786,178.43697 C -221.05313,200.05912 -220.90584,230.52915 -251.2274,244.1036 C -254.51702,249.58568 -252.94004,296.51884 -271.78895,303.61625 C -302.90773,336.56782 -289.16234,335.55984 -339.12077,360.7397 C -316.1405,396.77163 -304.56762,493.95132 -404.9322,577.07034 C -431.79618,599.31831 -329.99416,722.38803 -308.56805,749.88869 C -294.51772,756.72603 -289.92765,758.23481 -269.14635,743.48131 C -257.23259,731.9557 -253.95112,724.18562 -243.33582,719.08257 C -229.48596,712.42457 -215.71529,710.32219 -215.71529,710.32219 C -191.626,731.65383 -209.01831,741.30931 -209.01831,741.30931 C -225.37142,741.57469 -221.39155,733.29248 -239.75203,743.62611 C -258.11252,753.95765 -261.72537,758.97487 -261.72537,758.97487 C -261.88978,759.5409 -262.12715,760.04509 -262.41317,760.49526 C -240.92682,755.34999 -198.09472,747.5364 -183.71458,762.88446 C -172.31798,775.04958 -186.03137,785.0388 -186.03137,785.0388 C -200.03104,776.36387 -218.6386,775.06993 -232.87405,775.69922 C -221.95019,777.59243 -185.90846,781.0365 -184.69197,802.41476 C -183.39244,825.22023 -199.57013,818.01691 -199.57013,818.01691 C -201.51848,789.17803 -228.47143,802.32989 -244.74762,797.49157 C -251.17966,795.57956 -262.85818,793.63101 -284.35031,800.74956 C -305.84244,788.67668 -326.31374,822.12701 -332.49619,786.9574 C -349.0557,790.0162 -357.82119,787.32551 -363.66431,796.04357 C -369.50746,804.76163 -392.91383,822.9401 -392.91383,822.9401 C -391.61626,797.44991 -411.73778,798.14317 -411.73778,798.14317 C -363.17194,769.37706 -337.45558,760.82106 -337.45558,760.82106 C -337.45555,742.02208 -419.62495,633.88282 -453.11428,605.30627 C -472.89116,588.43053 -417.1468,507.43534 -444.8245,492.32636 C -493.01274,466.02095 -525.28073,475.26132 -549.73183,452.61506 C -558.63388,446.82976 -551.36389,451.43198 -558.23886,445.01308 C -567.6235,450.95166 -568.86831,451.84518 -568.73684,451.81866 C -568.27904,451.57557 -567.30309,450.93561 -575.61482,455.90925 C -551.12434,466.28737 -573.6891,476.46772 -527.75854,485.44838 C -521.16817,527.13674 -514.88032,532.36645 -486.01999,545.06962 C -502.14916,575.12332 -486.93676,603.96818 -480.77101,620.25683 C -502.00733,659.10353 -494.3387,649.48999 -490.94318,686.50266 C -523.69801,698.9628 -531.22227,690.00068 -551.94008,740.87491 C -595.09848,723.8844 -599.21936,725.36795 -641.71585,760.27806 C -671.18709,727.21686 -678.33266,726.28961 -722.40538,743.80711 C -742.9726,709.5471 -736.13123,695.03609 -800.52478,716.91058 C -798.67899,685.00473 -807.8009,661.99532 -807.80102,661.99532 C -812.16806,665.75594 -817.59329,650.30012 -852.65264,649.14435 C -843.91207,614.13683 -844.94212,598.10248 -844.94212,598.10248 C -844.94212,598.10248 -833.13921,581.04767 -878.42698,549.95661 C -834.05979,515.88571 -835.49389,500.32654 -835.49389,500.32654 C -835.49377,500.32653 -841.90249,455.79939 -863.15062,448.74167 C -863.15062,448.74167 -806.72104,420.54369 -835.82322,368.04462 C -798.29649,347.48629 -783.38479,358.90881 -783.80042,287.50729 C -751.2768,289.07219 -733.41015,261.47956 -733.41015,261.47956 C -771.07601,235.55691 -819.05056,247.25641 -823.14978,251.48838 C -840.56998,269.47579 -843.27994,248.02696 -844.39906,238.78221 C -859.92054,110.3557 -940.60278,92.034954 -958.50117,94.344589 C -976.39956,96.654259 -978.63955,81.626201 -971.93139,77.004834 C -965.22103,72.381463 -929.43259,41.196582 -929.4327,-32.753282 C -929.43259,-106.70314 -990.93582,-142.51649 -1002.1221,-144.82819 C -1013.3063,-147.1399 -1020.0168,-155.22775 -1012.1857,-159.85115 C -1004.3545,-164.47454 -946.1932,-218.80288 -946.1932,-283.51003 C -946.1932,-348.21512 -1043.1445,-496.8535 -1055.2273,-527.6784 C -1074.0602,-532.1153 -1046.3584,-540.85517 -1046.3584,-540.85517 z M -653.40836,487.80137 C -656.22106,487.7296 -659.22166,488.91205 -665.39059,490.95076 C -759.31758,541.25687 -698.31721,658.97072 -646.85623,657.61513 C -552.5809,655.13167 -553.18501,588.02193 -568.55578,558.71699 C -574.81761,546.77836 -584.66294,525.46628 -618.40311,504.74293 C -643.33656,492.64997 -648.03861,487.9384 -653.40836,487.80137 z M -286.66711,775.19243 C -286.96946,775.21711 -286.96791,775.38877 -286.55851,775.77162 C -286.13559,776.16712 -284.08042,776.412 -281.05612,776.53182 C -283.94862,775.75995 -286.03589,775.1409 -286.66711,775.19243 z "
         style="fill:#217844;fill-opacity:1;stroke:black;stroke-width:2.65210533;stroke-linecap:round;stroke-linejoin:round;stroke-miterlimit:4;stroke-dasharray:none" />
      <path
         id="path7267"
         d="M -437.54313,65.942467 C -464.17746,-20.717641 -537.42386,1.2906505 -537.42386,1.2906505 C -534.76117,-64.736287 -601.34699,-83.994325 -601.34699,-83.994325 C -566.72076,-162.40158 -610.66826,-206.42023 -610.66826,-206.42023 C -569.38542,-233.92905 -554.92538,-290.38131 -554.92538,-290.38131 C -547.74309,-289.10455 -539.36429,-288.40774 -529.38435,-288.40774 C -529.38435,-288.40774 -564.13754,-256.46816 -560.88163,-200.11838 C -557.62375,-143.76657 -535.28106,-73.91546 -422.45615,-19.291261 C -396.39921,-6.6752749 -372.78664,-13.405446 -363.01504,-24.336844 C -363.01504,-24.336844 -388.25851,1.7353823 -380.11584,19.398979 C -371.97117,37.062599 -340.45402,49.285112 -340.45402,66.944619 C -358.9675,58.283934 -393.66117,48.504294 -437.54313,65.942467 z "
         i:knockout="Off"
         style="fill:#217844;stroke:black;stroke-width:2.65210533;stroke-linecap:round;stroke-linejoin:round;stroke-miterlimit:4;stroke-dasharray:none" />
      <path
         id="path7269"
         d="M -251.58497,-289.76034 C -242.10304,-288.72951 -231.83344,-287.16993 -222.79594,-286.85638"
         i:knockout="Off"
         style="fill:none;stroke:black;stroke-width:2.65210533;stroke-linecap:round;stroke-linejoin:round;stroke-miterlimit:4;stroke-dasharray:none" />
      <path
         id="path7271"
         d="M -340.81177,359.03063 C -348.31681,336.72898 -413.04713,289.4805 -505.25823,307.4687"
         i:knockout="Off"
         style="fill:none;stroke:black;stroke-width:2.65210533;stroke-linecap:round;stroke-linejoin:round;stroke-miterlimit:4;stroke-dasharray:none"
         sodipodi:nodetypes="cc" />
      <path
         id="path7273"
         d="M -559.56349,446.62492 C -605.42559,471.64581 -634.6882,479.20661 -656.60496,488.30731"
         i:knockout="Off"
         style="fill:none;stroke:black;stroke-width:2.65210533;stroke-linecap:round;stroke-linejoin:round;stroke-miterlimit:4;stroke-dasharray:none"
         sodipodi:nodetypes="cc" />
      <path
         id="path7275"
         d="M -325.67658,75.572522 C -325.67658,75.572522 -330.9205,71.408166 -340.45402,66.94667"
         i:knockout="Off"
         style="fill:none;stroke:black;stroke-width:2.65210533;stroke-linecap:round;stroke-linejoin:round;stroke-miterlimit:4;stroke-dasharray:none" />
      <path
         id="path7277"
         d="M -409.89493,153.92034 C -409.89493,153.92034 -426.04139,100.39052 -481.15525,70.178551"
         i:knockout="Off"
         style="fill:none;stroke:black;stroke-width:2.65210533;stroke-linecap:round;stroke-linejoin:round;stroke-miterlimit:4;stroke-dasharray:none" />
      <path
         id="path7279"
         d="M -525.34676,292.76383 C -525.34676,292.76383 -608.50959,224.05425 -676.04575,309.30644 C -682.59915,317.57773 -694.2378,319.58818 -698.97576,306.92916 C -707.33672,285.33689 -719.68558,270.90513 -733.40158,261.46774"
         i:knockout="Off"
         style="fill:none;stroke:black;stroke-width:2.65210533;stroke-linecap:round;stroke-linejoin:round;stroke-miterlimit:4;stroke-dasharray:none" />
      <path
         sodipodi:nodetypes="ccc"
         id="path7281"
         d="M -578.56143,371.66136 C -578.56143,371.66136 -587.68601,400.37153 -578.22191,417.05389 C -565.62689,445.2144 -558.77926,444.47548 -558.77926,444.47548"
         i:knockout="Off"
         style="fill:none;stroke:black;stroke-width:2.65210533;stroke-linecap:round;stroke-linejoin:round;stroke-miterlimit:4;stroke-dasharray:none" />
      <path
         id="path7283"
         d="M -425.62275,-240.52807 C -429.08696,-244.95269 -430.64646,-250.05153 -431.85278,-254.67494 C -436.44394,-272.29346 -418.74792,-295.27932 -418.74792,-295.27932"
         i:knockout="Off"
         style="fill:none;stroke:black;stroke-width:2.65210533;stroke-linecap:round;stroke-linejoin:round;stroke-miterlimit:4;stroke-dasharray:none" />
      <path
         id="path7285"
         d="M -419.81335,-392.11257 C -425.33905,-385.88654 -428.35285,-379.66258 -428.35285,-379.66258"
         i:knockout="Off"
         style="fill:none;stroke:black;stroke-width:2.65210533;stroke-linecap:round;stroke-linejoin:round;stroke-miterlimit:4;stroke-dasharray:none" />
      <path
         id="path7287"
         d="M -500.20839,-370.78671 C -491.18081,-381.76934 -480.73659,-387.65721 -471.08999,-390.30091"
         i:knockout="Off"
         style="fill:none;stroke:black;stroke-width:2.65210533;stroke-linecap:round;stroke-linejoin:round;stroke-miterlimit:4;stroke-dasharray:none" />
      <path
         sodipodi:nodetypes="ccccsc"
         id="path7289"
         d="M -358.53894,-349.19033 C -367.0447,-348.02833 -375.22904,-372.59836 -395.15319,-365.90509 C -414.72022,-359.33272 -414.99007,-365.47595 -443.26526,-361.37009 C -443.26526,-361.37009 -410.25405,-332.95514 -395.15319,-330.44054 C -384.10981,-328.6002 -370.80255,-332.95514 -367.94746,-345.72074 C -367.13994,-349.32764 -362.43568,-348.77227 -358.53894,-349.19033 z "
         i:knockout="Off"
         style="fill:none;stroke:black;stroke-width:2.65210533;stroke-linecap:round;stroke-linejoin:round;stroke-miterlimit:4;stroke-dasharray:none" />
      <path
         sodipodi:nodetypes="ccccc"
         id="path7291"
         d="M -604.84905,-362.18658 C -587.46452,-358.5141 -545.51468,-336.08873 -519.86652,-334.43488 C -519.86652,-334.43488 -529.33477,-314.45949 -529.33477,-311.97357 C -529.33477,-311.97357 -555.78654,-304.52409 -571.81597,-321.91104 C -585.50405,-336.75468 -592.82547,-355.56299 -604.84905,-362.18658 z "
         i:knockout="Off"
         style="fill:none;stroke:black;stroke-width:2.65210533;stroke-linecap:round;stroke-linejoin:round;stroke-miterlimit:4;stroke-dasharray:none" />
      <path
         id="path7293"
         d="M -380.55234,-365.16525 C -380.4829,-365.16525 -380.41742,-365.15296 -380.34996,-365.15091 C -376.74884,-363.42328 -373.68145,-360.75294 -370.95136,-358.0785 C -369.59821,-355.36102 -368.79863,-352.05127 -368.79863,-348.471 C -368.79863,-344.94401 -369.57442,-341.67935 -370.8859,-338.98441 C -373.239,-335.60705 -376.58019,-333.23385 -380.36186,-331.79314 C -380.42536,-331.7911 -380.48685,-331.77879 -380.55034,-331.77879 C -387.04029,-331.77879 -392.30207,-339.2529 -392.30207,-348.47305 C -392.30207,-357.69322 -387.04228,-365.16525 -380.55234,-365.16525 z M -384.02447,-352.22752 C -382.58404,-351.70287 -380.87574,-352.90177 -380.21305,-354.90606 C -379.55038,-356.91035 -380.17932,-358.95768 -381.62174,-359.48437 C -383.06419,-360.00697 -384.7705,-358.81012 -385.43516,-356.80583 C -386.09984,-354.80154 -385.46692,-352.75421 -384.02447,-352.22752 z "
         i:knockout="Off" />
      <path
         id="path7295"
         d="M -344.97574,-334.2442 C -325.0139,-362.53385 -290.66347,-360.61564 -290.66347,-360.61564"
         i:knockout="Off"
         style="fill:none;stroke:black;stroke-width:2.65210533;stroke-linecap:round;stroke-linejoin:round;stroke-miterlimit:4;stroke-dasharray:none" />
      <path
         id="path7297"
         d="M -1050.2296,-547.1013 C -1050.2296,-547.1013 -1074.9637,-578.31422 -1106.4118,-548.26628 C -1106.4118,-548.26628 -1067.8273,-548.98555 -1057.3498,-530.54275 C -1055.7858,-527.78978 -1044.8295,-541.43022 -1050.2296,-547.1013 z "
         i:knockout="Off"
         style="fill:#217844;stroke:black;stroke-width:2.65210724;stroke-linecap:round;stroke-linejoin:round;stroke-miterlimit:4;stroke-dasharray:none" />
      <path
         id="path7299"
         d="M -1005.7705,-166.94505 C -1005.7705,-166.94505 -1030.641,-169.101 -1043.3927,-154.8701 C -1051.4957,-145.83028 -1054.0115,-133.41103 -1049.1644,-122.08206 C -1049.1644,-122.08206 -1034.8115,-154.94387 -1005.2884,-145.7934 C -1000.1874,-144.21332 -998.11788,-165.89167 -1005.7705,-166.94505 z "
         i:knockout="Off"
         style="fill:#217844;stroke:black;stroke-width:2.65210533;stroke-linecap:round;stroke-linejoin:round;stroke-miterlimit:4;stroke-dasharray:none" />
      <path
         id="path7301"
         d="M -958.49978,94.32229 C -1002.1456,92.928727 -997.1556,135.67266 -997.1556,135.67266 C -997.1556,135.67266 -1020.5916,113.52705 -1005.1356,91.383494 C -991.37404,71.664357 -966.24563,72.330389 -966.24563,72.330389 C -966.24563,72.330389 -971.69392,85.930074 -958.49978,94.32229 z "
         i:knockout="Off"
         style="fill:#217844;stroke:black;stroke-width:2.65210533;stroke-linecap:round;stroke-linejoin:round;stroke-miterlimit:4;stroke-dasharray:none" />
      <path
         id="path7303"
         d="M -823.14561,251.46472 C -840.30402,262.97404 -855.75599,277.82795 -839.7722,305.89012 C -839.7722,305.89012 -869.06921,294.88903 -865.34114,264.07661 C -863.31928,247.37416 -844.39918,238.75651 -844.39918,238.75651 C -844.39918,238.75651 -841.67301,250.96058 -823.14561,251.46472 z "
         i:knockout="Off"
         style="fill:#217844;stroke:black;stroke-width:2.65210533;stroke-linecap:round;stroke-linejoin:round;stroke-miterlimit:4;stroke-dasharray:none" />
      <path
         id="path7305"
         d="M -676.04575,309.30644 C -676.04575,309.30644 -682.6924,336.7374 -640.34419,359.64949 C -640.34419,359.64949 -677.69647,357.31523 -690.75774,343.40198 C -703.66414,329.65269 -698.42228,309.23882 -698.42228,309.23882 C -698.42228,309.23882 -687.54945,317.70685 -676.04575,309.30644 z "
         i:knockout="Off"
         style="fill:#217844;stroke:black;stroke-width:2.65210533;stroke-linecap:round;stroke-linejoin:round;stroke-miterlimit:4;stroke-dasharray:none" />
      <path
         id="path7307"
         d="M -497.10926,100.55242 C -497.10926,100.55242 -523.68203,64.323456 -576.82372,68.715299 C -629.96542,73.107106 -637.40765,99.453942 -646.97103,165.32516 C -656.53429,231.19635 -676.04378,309.30644 -676.04378,309.30644"
         i:knockout="Off"
         style="fill:none;stroke:black;stroke-width:2.65210533;stroke-linecap:round;stroke-linejoin:round;stroke-miterlimit:4;stroke-dasharray:none" />
      <path
         id="path7309"
         d="M -698.42228,309.24087 C -698.42228,309.24087 -673.08153,178.50473 -670.66291,146.00973 C -668.2443,113.51475 -666.62926,96.871725 -673.88905,96.851233 C -683.28365,96.824601 -696.47976,111.84859 -745.68302,163.50529 C -794.8864,215.16199 -823.14561,251.46472 -823.14561,251.46472"
         i:knockout="Off"
         style="fill:none;stroke:black;stroke-width:2.65210533;stroke-linecap:round;stroke-linejoin:round;stroke-miterlimit:4;stroke-dasharray:none" />
      <path
         id="path7311"
         d="M -844.39918,238.75446 C -844.39918,238.75446 -723.74113,93.428772 -700.50948,61.858075 C -677.27979,30.285304 -688.78557,-23.783513 -737.08204,-5.4722912 C -785.37862,12.83893 -896.87213,64.665705 -958.50372,94.320251"
         i:knockout="Off"
         style="fill:none;stroke:black;stroke-width:2.65210533;stroke-linecap:round;stroke-linejoin:round;stroke-miterlimit:4;stroke-dasharray:none" />
      <path
         id="path7313"
         d="M -966.24957,72.32835 C -966.24957,72.32835 -813.55651,-1.3079583 -762.32756,-30.171435 C -711.0985,-59.034912 -732.83211,-89.503058 -764.65884,-94.312943 C -796.48348,-99.12285 -1005.2884,-145.79545 -1005.2884,-145.79545"
         i:knockout="Off"
         style="fill:none;stroke:black;stroke-width:2.65210533;stroke-linecap:round;stroke-linejoin:round;stroke-miterlimit:4;stroke-dasharray:none" />
      <path
         id="path7315"
         d="M -1004.2348,-167.12335 C -1004.2348,-167.12335 -829.26055,-144.35268 -740.00664,-129.19956 C -740.00664,-129.19956 -743.19502,-157.65316 -701.01338,-157.65316 C -658.83186,-157.65316 -645.37974,-182.90973 -671.05573,-217.00733 C -705.08097,-242.75774 -855.95732,-341.89602 -1030.9401,-500.53146"
         i:knockout="Off"
         style="fill:none;stroke:black;stroke-width:2.65210533;stroke-linecap:round;stroke-linejoin:round;stroke-miterlimit:4;stroke-dasharray:none"
         sodipodi:nodetypes="ccscc" />
      <path
         id="path7317"
         d="M -265.11841,-36.420002 C -265.11841,-36.420002 -236.26587,-21.518951 -245.44623,8.2831519"
         i:knockout="Off"
         style="fill:none;stroke:black;stroke-width:2.65210533;stroke-linecap:round;stroke-linejoin:round;stroke-miterlimit:4;stroke-dasharray:none" />
      <path
         id="path7319"
         d="M -233.64291,84.143027 C -233.64291,84.143027 -211.34779,111.23584 -238.88883,141.03793"
         i:knockout="Off"
         style="fill:none;stroke:black;stroke-width:2.65210533;stroke-linecap:round;stroke-linejoin:round;stroke-miterlimit:4;stroke-dasharray:none" />
      <path
         sodipodi:nodetypes="cc"
         id="path7321"
         d="M -240.74541,182.49035 C -240.74541,182.49035 -232.7678,209.80058 -268.4904,237.1715"
         i:knockout="Off"
         style="fill:none;stroke:black;stroke-width:2.65210629;stroke-linecap:round;stroke-linejoin:round;stroke-miterlimit:4;stroke-dasharray:none" />
      <path
         sodipodi:nodetypes="cscccccccccccc"
         id="path7323"
         d="M -589.60976,462.19269 C -552.23107,488.81855 -535.3172,506.14949 -524.10195,522.56652 C -512.45765,539.61142 -501.98194,557.75847 -499.85546,582.21291 C -495.68084,598.91138 -498.81181,629.17735 -500.89912,647.96312 C -502.98643,666.74889 -515.51038,685.53466 -541.60162,701.18948 C -562.47477,717.88795 -574.99867,723.10623 -601.08994,723.10623 C -624.05029,727.28085 -656.40363,728.32449 -677.27667,722.06257 C -698.14971,715.80065 -724.24121,706.40776 -736.76499,700.14584 C -749.28876,693.88391 -782.6857,674.05447 -796.25319,651.0941 C -810.8644,632.30831 -822.34458,615.60985 -825.47549,583.25656 C -825.47549,566.55809 -825.29652,524.91683 -823.2092,499.86913 C -821.12189,474.82144 -816.08263,439.23231 -811.908,420.44653 C -807.98671,398.45561 -795.2097,364.0892 -779.55478,341.12881 C -762.24497,321.22521 -740.93962,295.20802 -720.06646,278.50956"
         style="fill:none;fill-rule:evenodd;stroke:black;stroke-width:2.8932066;stroke-linecap:butt;stroke-linejoin:miter;stroke-opacity:1" />
      <g
         style="fill:#217844;fill-opacity:1"
         transform="matrix(0,1.158397,1.158397,0,-774.4452,516.7914)"
         id="g7325">
        <path
           style="opacity:1;fill:#217844;fill-opacity:1;stroke:black;stroke-width:2.28946209;stroke-linecap:round;stroke-linejoin:round;stroke-miterlimit:4;stroke-dasharray:none;display:inline"
           i:knockout="Off"
           d="M -240.63038,653.60404 L -228.51929,669.89264 C -228.51929,669.89264 -217.74761,671.56978 -220.03589,690.94909 C -220.03589,690.94909 -201.72967,687.63899 -201.72967,664.47549 C -201.72967,651.71105 -212.26157,648.46643 -212.26157,648.46643 L -227.35804,644.62029 L -240.63038,653.60404 z "
           id="path7327" />
        <path
           style="opacity:1;fill:#217844;fill-opacity:1;stroke:black;stroke-width:2.28946233;stroke-linecap:round;stroke-linejoin:round;stroke-miterlimit:4;stroke-dasharray:none;display:inline"
           i:knockout="Off"
           d="M -402.58271,656.9649 L -410.17577,663.51841 C -410.17577,663.51841 -428.19546,663.77006 -435.16188,685.17399 C -435.16188,685.17399 -440.84872,670.74468 -438.44555,660.82641 C -436.87732,654.34989 -430.55875,648.81238 -430.55875,648.81238 L -415.91237,646.19615 L -406.29145,649.3244 L -402.58271,656.9649 z "
           id="path7329" />
        <path
           style="opacity:1;fill:#217844;fill-opacity:1;stroke:black;stroke-width:2.28946066;stroke-linecap:round;stroke-linejoin:round;stroke-miterlimit:4;stroke-dasharray:none;display:inline"
           i:knockout="Off"
           d="M -392.06257,568.02149 L -401.40082,566.28004 C -401.40082,566.28004 -425.00956,563.56477 -438.202,584.47789 C -438.202,584.47789 -412.13901,581.67769 -402.52882,589.60074 C -392.9202,597.52298 -389.58136,590.75529 -389.58136,590.75529 L -388.11618,575.5387 L -392.06257,568.02149 z "
           id="path7331" />
        <path
           style="opacity:1;fill:#217844;fill-opacity:1;stroke:black;stroke-width:2.28946209;stroke-linecap:round;stroke-linejoin:round;stroke-miterlimit:4;stroke-dasharray:none;display:inline"
           i:knockout="Off"
           d="M -451.70524,643.49228 C -451.70524,643.49228 -449.032,624.33551 -437.13011,615.97234 C -427.28445,609.0538 -414.48648,609.66429 -414.48648,609.66429 L -404.68963,618.47859 L -407.82843,629.58579 L -411.31639,634.24099 L -416.5327,632.8015 C -416.53396,632.8015 -429.2193,626.29553 -451.70524,643.49228 z "
           id="path7333" />
        <path
           sodipodi:nodetypes="cccsccccccccscccsccscccsccc"
           style="opacity:1;fill:#217844;fill-opacity:1;stroke:black;stroke-width:2.28946209;stroke-linecap:round;stroke-linejoin:round;stroke-miterlimit:4;stroke-dasharray:none;display:inline"
           i:knockout="Off"
           d="M -192.59436,500.61469 C -169.40371,519.82051 -289.71078,579.21859 -308.20712,602.95886 C -320.33622,608.86127 -324.30357,610.16643 -342.24327,597.43029 C -352.52799,587.48068 -355.35892,580.77356 -364.5227,576.36829 C -376.47877,570.62069 -388.37049,568.79145 -388.37049,568.79145 C -409.16586,587.20623 -394.15809,595.54321 -394.15809,595.54321 C -380.04107,595.7723 -383.48006,588.61371 -367.63016,597.53434 C -351.78022,606.45319 -348.65035,610.80342 -348.65035,610.80342 C -346.9684,616.59385 -337.15843,614.98178 -337.15843,614.98178 C -337.15843,614.98178 -399.17719,596.23195 -415.99502,614.18176 C -425.83325,624.68345 -414.00684,633.28696 -414.00684,633.28696 C -391.58308,619.39204 -355.29292,627.36343 -355.29292,627.36343 C -342.96088,631.41833 -324.40067,622.65379 -327.22799,625.29782 C -329.20977,627.15113 -371.97281,624.91582 -371.97281,624.91582 C -378.70037,626.53431 -414.04145,628.61558 -415.16161,648.30095 C -416.28347,667.98807 -402.3074,661.74652 -402.3074,661.74652 C -400.62545,636.85101 -377.35536,648.21808 -363.30475,644.04134 C -357.75221,642.39076 -347.67359,640.70043 -329.12025,646.8456 C -310.56691,636.42352 -292.88677,665.2969 -287.5497,634.93631 C -273.2545,637.57683 -265.68774,635.26278 -260.6436,642.78875 C -255.59945,650.31473 -235.41601,666.01961 -235.41601,666.01961 C -236.53617,644.01488 -219.16,644.59518 -219.16,644.59518 C -261.08502,619.76248 -283.27877,612.38146 -283.27877,612.38146 C -283.27877,596.15302 -179.89805,549.66055 -150.98799,524.9915 C -133.91534,510.42333 -150.00274,432.01237 -149.04401,401.13152 C -168.37394,418.1691 -188.51627,440.89841 -213.89199,448.39051 C -215.42873,463.29081 -201.74236,481.98433 -192.59436,500.61469 z "
           id="path7335" />
      </g>
      <path
         sodipodi:nodetypes="csccscccccccscc"
         d="M -588.89874,643.84094 C -582.78831,638.8759 -577.24758,633.80533 -572.99082,628.39146 C -567.98932,622.03049 -566.23644,619.62345 -565.9385,611.92896 C -590.24966,606.39337 -663.98985,610.36838 -739.2538,592.98957 C -752.82129,586.72765 -796.93873,585.07265 -834.51029,562.11226 C -848.07443,553.82307 -872.33508,534.72404 -881.72806,526.3748 C -897.79456,513.69945 -904.49751,496.22302 -898.78453,472.07405 C -886.33477,445.29715 -878.68669,436.88912 -843.05405,434.44369 C -829.0276,418.71955 -820.5991,405.42375 -831.03661,377.65407 C -871.99231,384.27411 -898.88948,390.62558 -927.06818,411.49866 C -953.5072,433.91782 -967.91523,473.16541 -960.64409,503.56273 C -950.55572,544.52887 -937.90638,548.79798 -903.10755,577.588 C -881.8724,589.06076 -867.77111,597.4 -854.3856,603.9755 C -831.99518,614.97456 -811.60751,621.03863 -763.18362,628.57873 C -708.51956,642.87314 -638.44755,636.10654 -588.89874,643.84094 z "
         style="fill:#217844;fill-opacity:1;fill-rule:evenodd;stroke:black;stroke-width:2.8932066;stroke-linecap:butt;stroke-linejoin:miter;stroke-opacity:1"
         id="path7337" />
      <path
         id="path7339"
         d="M -140.81769,550.49961 C -132.36119,550.63769 -125.05692,552.07432 -119.60454,555.278 C -119.60454,555.278 -174.31423,587.30614 -179.18959,622.32022 C -198.51419,660.33733 -230.39253,684.14558 -268.42236,698.26762 C -268.42236,698.26762 -247.73824,677.55239 -250.2138,661.88672 C -252.6083,646.73019 -244.89241,631.44257 -244.89242,631.4426 C -244.89242,631.4426 -259.58336,643.0421 -303.17427,663.76911 C -322.53928,671.06294 -344.20217,673.49813 -366.7051,673.36209 C -367.7185,671.9128 -368.7441,670.47199 -369.74589,669.0181 C -369.87898,668.82474 -370.01126,668.63231 -370.14409,668.4389 C -370.76216,667.54007 -371.3778,666.65963 -371.99029,665.76011 C -372.95229,664.34496 -373.90472,662.93928 -374.85008,661.52472 C -375.6092,660.39126 -376.34745,659.25345 -377.09447,658.12193 C -377.87677,656.93435 -378.64389,655.7582 -379.41127,654.57434 C -380.29591,653.21272 -381.15533,651.87432 -382.01766,650.51995 C -383.61771,648.00267 -385.17461,645.50679 -386.68745,643.02657 C -334.774,647.21245 -295.13759,640.75905 -263.10097,613.81324 C -263.10097,613.81324 -307.81468,599.09602 -299.80767,556.79839 C -299.80767,556.79839 -277.53227,590.53694 -240.83803,575.94814 C -215.64602,565.93262 -171.01947,550.00647 -140.81769,550.49961 z M -483.9204,626.51941 C -474.25002,628.40738 -443.08063,634.69337 -421.29456,638.53778 C -421.15874,638.69561 -421.03243,638.84998 -420.89636,639.00838 C -417.79315,642.62097 -414.64419,646.4035 -411.44819,650.26655 C -409.96481,652.06223 -408.48875,653.85977 -406.9956,655.69654 C -405.02739,658.11359 -403.06761,660.53728 -401.09501,663.00892 C -400.90222,663.25078 -400.70858,663.49062 -400.51581,663.73291 C -398.30604,666.51038 -396.08793,669.31261 -393.89123,672.13129 C -428.56584,669.39972 -463.80536,662.93389 -494.63557,660.69212 C -494.65958,660.52554 -494.68559,660.34914 -494.70797,660.18532 C -494.75504,657.97985 -494.92117,656.25054 -495.10617,654.90014 C -495.10177,654.5107 -495.09317,654.13246 -495.06997,653.74174 C -495.05032,653.41081 -495.03158,653.06255 -494.99757,652.72814 C -494.99149,652.6672 -494.96794,652.60824 -494.96137,652.54714 C -494.93114,652.27095 -494.89334,651.99484 -494.85277,651.71455 C -494.83541,651.59304 -494.83593,651.47497 -494.81657,651.35255 C -494.8034,651.27023 -494.79446,651.18193 -494.78037,651.09915 C -494.65588,650.36762 -494.47411,649.63532 -494.27357,648.85475 C -494.24675,648.75036 -494.22944,648.63446 -494.20117,648.52895 C -494.11319,648.19827 -494.01415,647.85802 -493.91157,647.51536 C -493.63752,646.60528 -493.31778,645.635 -492.93417,644.61936 C -492.16698,642.5881 -491.16216,640.30795 -489.89338,637.66898 C -489.88906,637.65999 -489.89771,637.64178 -489.89338,637.63278 C -489.27116,636.34043 -488.51634,634.91815 -487.75759,633.43359 C -486.98195,631.91581 -486.15104,630.29358 -485.22359,628.54661 C -484.81136,627.91065 -484.44702,627.31419 -483.9204,626.51941 z "
         style="fill:#217844;fill-opacity:1;stroke:black;stroke-width:2.65210652;stroke-linecap:round;stroke-linejoin:round;stroke-miterlimit:4;stroke-dasharray:none;display:inline" />
      <path
         style="fill:url(#radialGradient6411);fill-opacity:1;stroke:none;stroke-width:5.48496342;stroke-linecap:round;stroke-linejoin:round;stroke-miterlimit:4;stroke-dasharray:none"
         d="M 78.78125,307.59375 L 79.34375,314.46875 C 89.528803,332.65436 105.21875,360.74017 105.21875,375.3125 C 105.21875,391.84652 93.059847,406.20777 87.3125,411.65625 C 87.972087,411.74189 141.8569,418.73907 169.53125,423.4375 C 169.53126,423.43751 168.52818,414.5625 181.6875,414.5625 C 194.8468,414.56251 199.04134,406.69986 191.03125,396.0625 C 180.41648,388.02921 133.37028,357.08293 78.78125,307.59375 z M 86.78125,418.28125 C 87.097897,418.38595 87.402577,418.49069 87.75,418.5625 C 91.239761,419.28368 110.43753,430.46126 110.4375,453.53125 C 110.43753,472.69199 102.74697,482.63036 98.9375,486.28125 L 98.9375,486.3125 C 98.937498,486.3125 146.58071,463.34823 162.5625,454.34375 C 178.54434,445.33927 171.77267,435.84428 161.84375,434.34375 C 151.91549,432.84321 86.78125,418.28125 86.78125,418.28125 z M 175.5625,460.90625 C 174.03656,460.97249 172.32087,461.34844 170.4375,462.0625 C 155.37052,467.775 120.60208,483.93623 101.375,493.1875 C 106.95872,492.46697 132.12654,498.18503 136.96875,538.25 C 136.96876,538.25 174.59622,492.91155 181.84375,483.0625 C 188.18482,474.44401 186.24414,460.44256 175.5625,460.90625 z M 223.40625,485.0625 C 222.93523,485.05951 222.45496,485.07554 221.96875,485.09375 C 221.46687,485.11255 220.95558,485.14468 220.4375,485.1875 C 203.85901,486.55761 201.54597,494.79404 198.5625,515.34375 C 195.57908,535.89346 189.46875,560.25 189.46875,560.25 C 189.46875,560.25 242.27792,558.14839 269.62967,556.7056 C 284.8228,541.19853 261.69245,508.8658 261.69245,508.8658 C 255.598,504.80284 238.00796,485.15529 223.40625,485.0625 z M 190.15625,493.96875 C 187.22544,493.96043 183.09984,498.66601 167.75,514.78125 C 152.40013,530.8965 143.59375,542.21875 143.59375,542.21875 C 144.87258,540.89851 159.8432,537.25674 171.59375,545.34375 C 171.59375,545.34375 168.98696,549.32672 164.125,551.71875 L 182.5,560.21875 C 182.5,560.21875 190.40172,519.4499 191.15625,509.3125 C 191.91078,499.1751 192.42107,493.97514 190.15625,493.96875 z "
         transform="matrix(3.205457,0,0,3.205457,-1283.422,-1486.554)"
         id="path3151"
         sodipodi:nodetypes="ccscsscccssccssccscssccssscccccsccccsc" />
    </g>
  </g>
</svg>
